<svg xmlns="http://www.w3.org/2000/svg" xmlns:xlink="http://www.w3.org/1999/xlink" width="40" zoomAndPan="magnify" viewBox="0 0 30 30.000001" height="40" preserveAspectRatio="xMidYMid meet" version="1.0"><defs><clipPath id="02fb99abc3"><path d="M 2.378906 6.109375 L 27.78125 6.109375 L 27.78125 22.800781 L 2.378906 22.800781 Z M 2.378906 6.109375 " clip-rule="nonzero"/></clipPath><clipPath id="a96baa2250"><path d="M 11.699219 9.886719 L 18.261719 9.886719 L 18.261719 12.542969 L 11.699219 12.542969 Z M 11.699219 9.886719 " clip-rule="nonzero"/></clipPath><clipPath id="f740ff13fc"><path d="M 9.4375 11 L 20.324219 11 L 20.324219 15.9375 L 9.4375 15.9375 Z M 9.4375 11 " clip-rule="nonzero"/></clipPath><clipPath id="970bf47361"><path d="M 9.4375 10 L 20.324219 10 L 20.324219 15.9375 L 9.4375 15.9375 Z M 9.4375 10 " clip-rule="nonzero"/></clipPath><clipPath id="e79b978621"><path d="M 9.4375 10 L 15 10 L 15 15.9375 L 9.4375 15.9375 Z M 9.4375 10 " clip-rule="nonzero"/></clipPath><clipPath id="a8383a298a"><path d="M 9.4375 10 L 16 10 L 16 15.9375 L 9.4375 15.9375 Z M 9.4375 10 " clip-rule="nonzero"/></clipPath><clipPath id="c73f8a54be"><path d="M 9.4375 10 L 15 10 L 15 15.9375 L 9.4375 15.9375 Z M 9.4375 10 " clip-rule="nonzero"/></clipPath><clipPath id="4aae076787"><path d="M 9.4375 10 L 16 10 L 16 15.9375 L 9.4375 15.9375 Z M 9.4375 10 " clip-rule="nonzero"/></clipPath><clipPath id="d19f225eb2"><path d="M 10 9.40625 L 15 9.40625 L 15 15.9375 L 10 15.9375 Z M 10 9.40625 " clip-rule="nonzero"/></clipPath><clipPath id="aed720d912"><path d="M 10 9.40625 L 16 9.40625 L 16 15.9375 L 10 15.9375 Z M 10 9.40625 " clip-rule="nonzero"/></clipPath><clipPath id="cd7cae9637"><path d="M 14 10 L 20.324219 10 L 20.324219 15.9375 L 14 15.9375 Z M 14 10 " clip-rule="nonzero"/></clipPath><clipPath id="8d7c7fe7cd"><path d="M 14 9.40625 L 20 9.40625 L 20 15.9375 L 14 15.9375 Z M 14 9.40625 " clip-rule="nonzero"/></clipPath></defs><g clip-path="url(#02fb99abc3)"><path fill="#ed8e1e" d="M 24.191406 6.109375 L 5.820312 6.109375 C 4.960938 6.109375 4.257812 6.8125 4.257812 7.671875 L 4.257812 19.90625 C 4.199219 19.945312 4.140625 19.984375 4.082031 20.042969 L 2.695312 21.605469 C 2.5 21.839844 2.441406 22.171875 2.558594 22.445312 C 2.695312 22.738281 2.96875 22.914062 3.28125 22.914062 L 26.730469 22.914062 C 27.042969 22.914062 27.316406 22.738281 27.433594 22.445312 C 27.550781 22.171875 27.511719 21.839844 27.296875 21.605469 L 25.910156 20.042969 C 25.851562 19.984375 25.792969 19.945312 25.734375 19.90625 L 25.734375 7.671875 C 25.753906 6.8125 25.050781 6.109375 24.191406 6.109375 Z M 5.039062 7.671875 C 5.039062 7.242188 5.390625 6.890625 5.820312 6.890625 L 24.191406 6.890625 C 24.621094 6.890625 24.972656 7.242188 24.972656 7.671875 L 24.972656 19.789062 L 5.039062 19.789062 Z M 26.730469 22.132812 L 3.28125 22.132812 L 4.667969 20.570312 L 25.34375 20.570312 Z M 26.730469 22.132812 " fill-opacity="1" fill-rule="nonzero"/></g><path fill="#ed8e1e" d="M 23.410156 7.671875 L 6.601562 7.671875 C 6.171875 7.671875 5.820312 8.023438 5.820312 8.453125 L 5.820312 18.222656 C 5.820312 18.65625 6.171875 19.007812 6.601562 19.007812 L 23.410156 19.007812 C 23.839844 19.007812 24.191406 18.65625 24.191406 18.222656 L 24.191406 8.453125 C 24.191406 8.023438 23.839844 7.671875 23.410156 7.671875 Z M 13.070312 12.519531 L 14.183594 11.402344 C 14.339844 11.246094 14.574219 11.246094 14.730469 11.402344 C 14.886719 11.558594 14.886719 11.792969 14.730469 11.949219 L 13.617188 13.066406 C 13.539062 13.144531 13.441406 13.183594 13.34375 13.183594 C 13.246094 13.183594 13.148438 13.144531 13.070312 13.066406 C 12.914062 12.910156 12.914062 12.65625 13.070312 12.519531 Z M 13.617188 15.117188 C 13.519531 15.117188 13.421875 15.078125 13.34375 15 C 13.1875 14.84375 13.1875 14.609375 13.34375 14.453125 L 16.101562 11.695312 C 16.257812 11.539062 16.492188 11.539062 16.648438 11.695312 C 16.804688 11.851562 16.804688 12.085938 16.648438 12.246094 L 13.890625 15 C 13.832031 15.078125 13.714844 15.117188 13.617188 15.117188 Z M 16.941406 14.160156 L 15.828125 15.273438 C 15.75 15.351562 15.652344 15.390625 15.554688 15.390625 C 15.457031 15.390625 15.359375 15.351562 15.28125 15.273438 C 15.125 15.117188 15.125 14.882812 15.28125 14.726562 L 16.394531 13.613281 C 16.550781 13.457031 16.785156 13.457031 16.941406 13.613281 C 17.097656 13.769531 17.097656 14.023438 16.941406 14.160156 Z M 16.941406 14.160156 " fill-opacity="1" fill-rule="nonzero"/><g clip-path="url(#a96baa2250)"><path fill="#ed8e1e" d="M 11.699219 9.886719 L 18.261719 9.886719 L 18.261719 12.542969 L 11.699219 12.542969 Z M 11.699219 9.886719 " fill-opacity="1" fill-rule="nonzero"/></g><g clip-path="url(#f740ff13fc)"><path fill="#ffffff" d="M 20.183594 15.296875 L 19.742188 11.261719 L 15.164062 11.261719 L 15.164062 11.234375 L 14.839844 11.234375 L 14.839844 11.261719 L 10.261719 11.261719 L 9.820312 15.296875 L 14.839844 15.296875 L 14.839844 15.273438 C 14.839844 15.363281 14.910156 15.4375 15 15.4375 C 15.089844 15.4375 15.164062 15.363281 15.164062 15.273438 L 15.164062 15.296875 L 20.183594 15.296875 " fill-opacity="1" fill-rule="nonzero"/></g><g clip-path="url(#970bf47361)"><path fill="#ed8e1e" d="M 14.839844 15.035156 C 14.902344 15.035156 14.957031 15.058594 15 15.097656 C 15.042969 15.058594 15.101562 15.035156 15.164062 15.035156 C 15.199219 15.035156 15.234375 15.042969 15.265625 15.054688 L 19.914062 15.054688 L 19.527344 11.5 L 15.164062 11.5 C 15.125 11.5 15.085938 11.488281 15.054688 11.472656 L 14.949219 11.472656 C 14.917969 11.488281 14.878906 11.5 14.839844 11.5 L 10.476562 11.5 L 10.085938 15.054688 L 14.738281 15.054688 C 14.769531 15.042969 14.800781 15.035156 14.839844 15.035156 Z M 15 15.675781 C 14.878906 15.675781 14.769531 15.621094 14.695312 15.535156 L 9.820312 15.535156 C 9.75 15.535156 9.6875 15.507812 9.640625 15.457031 C 9.597656 15.40625 9.574219 15.335938 9.582031 15.269531 L 10.023438 11.234375 C 10.035156 11.113281 10.136719 11.019531 10.261719 11.019531 L 14.726562 11.019531 C 14.761719 11.003906 14.800781 10.992188 14.839844 10.992188 L 15.164062 10.992188 C 15.203125 10.992188 15.242188 11.003906 15.273438 11.019531 L 19.742188 11.019531 C 19.863281 11.019531 19.964844 11.113281 19.980469 11.234375 L 20.421875 15.269531 C 20.425781 15.335938 20.40625 15.40625 20.359375 15.457031 C 20.316406 15.507812 20.25 15.535156 20.183594 15.535156 L 15.304688 15.535156 C 15.230469 15.621094 15.121094 15.675781 15 15.675781 " fill-opacity="1" fill-rule="nonzero"/></g><g clip-path="url(#e79b978621)"><path fill="#ffffff" d="M 14.996094 11.246094 C 14.996094 11.246094 13.925781 9.878906 12.59375 10.6875 C 11.261719 11.5 10.164062 10.917969 10.164062 10.917969 L 9.726562 14.953125 C 9.726562 14.953125 11.261719 15.539062 12.59375 14.726562 C 13.925781 13.914062 14.996094 15.285156 14.996094 15.285156 L 14.996094 11.246094 " fill-opacity="1" fill-rule="nonzero"/></g><g clip-path="url(#a8383a298a)"><path fill="#ed8e1e" d="M 13.457031 14.398438 C 14.152344 14.398438 14.691406 14.855469 14.925781 15.09375 L 14.925781 11.273438 C 14.824219 11.152344 14.238281 10.503906 13.457031 10.503906 C 13.179688 10.503906 12.898438 10.585938 12.632812 10.75 C 12.152344 11.042969 11.648438 11.191406 11.136719 11.191406 C 10.699219 11.191406 10.378906 11.085938 10.226562 11.023438 L 9.800781 14.902344 C 9.953125 14.953125 10.410156 15.085938 10.972656 15.085938 C 11.566406 15.085938 12.101562 14.941406 12.558594 14.664062 C 12.847656 14.488281 13.152344 14.398438 13.457031 14.398438 Z M 14.996094 15.355469 C 14.976562 15.355469 14.953125 15.34375 14.941406 15.328125 C 14.933594 15.320312 14.3125 14.539062 13.457031 14.539062 C 13.179688 14.539062 12.898438 14.625 12.632812 14.785156 C 12.152344 15.078125 11.59375 15.226562 10.972656 15.226562 C 10.253906 15.226562 9.722656 15.027344 9.699219 15.019531 C 9.667969 15.007812 9.648438 14.976562 9.652344 14.945312 L 10.09375 10.910156 C 10.097656 10.886719 10.109375 10.863281 10.132812 10.851562 C 10.152344 10.839844 10.179688 10.839844 10.199219 10.851562 C 10.203125 10.855469 10.574219 11.046875 11.136719 11.046875 C 11.621094 11.046875 12.101562 10.90625 12.558594 10.628906 C 12.847656 10.449219 13.152344 10.359375 13.457031 10.359375 C 14.382812 10.359375 15.027344 11.167969 15.054688 11.203125 C 15.0625 11.214844 15.070312 11.230469 15.070312 11.246094 L 15.070312 15.285156 C 15.070312 15.3125 15.050781 15.339844 15.019531 15.351562 C 15.011719 15.355469 15.003906 15.355469 14.996094 15.355469 " fill-opacity="1" fill-rule="nonzero"/></g><g clip-path="url(#c73f8a54be)"><path fill="#ffffff" d="M 14.996094 11.289062 C 14.996094 11.289062 14.359375 9.726562 12.671875 10.246094 C 10.984375 10.765625 11.121094 10.6875 9.953125 10.230469 L 9.511719 14.226562 C 10.679688 14.683594 10.984375 14.761719 12.671875 14.242188 C 14.359375 13.722656 14.996094 15.285156 14.996094 15.285156 L 14.996094 11.289062 " fill-opacity="1" fill-rule="nonzero"/></g><g clip-path="url(#4aae076787)"><path fill="#ed8e1e" d="M 13.332031 14.066406 C 14.199219 14.066406 14.703125 14.652344 14.925781 15.003906 L 14.925781 11.300781 C 14.871094 11.179688 14.398438 10.210938 13.332031 10.210938 C 13.128906 10.210938 12.914062 10.246094 12.691406 10.316406 C 11.855469 10.574219 11.484375 10.675781 11.164062 10.675781 C 10.871094 10.675781 10.648438 10.585938 10.242188 10.425781 C 10.171875 10.398438 10.097656 10.367188 10.011719 10.332031 L 9.585938 14.179688 C 10.164062 14.402344 10.519531 14.53125 10.960938 14.53125 C 11.351562 14.53125 11.808594 14.433594 12.648438 14.175781 C 12.886719 14.101562 13.113281 14.066406 13.332031 14.066406 Z M 14.996094 15.355469 C 14.96875 15.355469 14.941406 15.335938 14.929688 15.3125 C 14.925781 15.300781 14.464844 14.207031 13.332031 14.207031 C 13.128906 14.207031 12.914062 14.242188 12.691406 14.3125 C 11.835938 14.574219 11.367188 14.671875 10.960938 14.671875 C 10.480469 14.671875 10.089844 14.53125 9.484375 14.292969 C 9.453125 14.28125 9.433594 14.253906 9.4375 14.21875 L 9.878906 10.222656 C 9.882812 10.203125 9.894531 10.183594 9.914062 10.171875 C 9.933594 10.160156 9.957031 10.15625 9.976562 10.164062 C 10.097656 10.210938 10.203125 10.253906 10.296875 10.292969 C 10.683594 10.449219 10.898438 10.535156 11.164062 10.535156 C 11.464844 10.535156 11.847656 10.425781 12.648438 10.179688 C 12.886719 10.105469 13.113281 10.070312 13.332031 10.070312 C 14.5625 10.070312 15.058594 11.25 15.0625 11.261719 C 15.066406 11.269531 15.070312 11.277344 15.070312 11.289062 L 15.070312 15.285156 C 15.070312 15.316406 15.042969 15.347656 15.011719 15.355469 C 15.007812 15.355469 15 15.355469 14.996094 15.355469 " fill-opacity="1" fill-rule="nonzero"/></g><g clip-path="url(#d19f225eb2)"><path fill="#ffffff" d="M 12.933594 9.546875 C 11.65625 9.6875 12.089844 10.050781 10.785156 9.570312 L 10.34375 13.589844 C 11.648438 14.074219 11.65625 13.710938 12.933594 13.570312 C 14.207031 13.425781 14.996094 15.285156 14.996094 15.285156 L 14.996094 11.261719 C 14.996094 11.261719 14.207031 9.40625 12.933594 9.546875 " fill-opacity="1" fill-rule="nonzero"/></g><g clip-path="url(#aed720d912)"><path fill="#ed8e1e" d="M 13.070312 13.488281 C 14.007812 13.488281 14.65625 14.476562 14.925781 14.972656 L 14.925781 11.277344 C 14.855469 11.121094 14.148438 9.609375 13.070312 9.609375 C 13.027344 9.609375 12.984375 9.613281 12.941406 9.617188 C 12.492188 9.667969 12.257812 9.746094 12.085938 9.800781 C 11.949219 9.847656 11.84375 9.882812 11.699219 9.882812 C 11.515625 9.882812 11.277344 9.824219 10.847656 9.667969 L 10.421875 13.542969 C 10.84375 13.695312 11.136719 13.761719 11.398438 13.761719 C 11.605469 13.761719 11.785156 13.71875 12.015625 13.664062 C 12.242188 13.609375 12.523438 13.542969 12.925781 13.496094 C 12.972656 13.492188 13.023438 13.488281 13.070312 13.488281 Z M 14.996094 15.355469 C 14.96875 15.355469 14.941406 15.339844 14.929688 15.3125 C 14.921875 15.292969 14.203125 13.632812 13.070312 13.632812 C 13.027344 13.632812 12.984375 13.636719 12.941406 13.640625 C 12.546875 13.683594 12.269531 13.75 12.046875 13.804688 C 11.8125 13.859375 11.625 13.90625 11.398438 13.90625 C 11.109375 13.90625 10.789062 13.832031 10.320312 13.660156 C 10.289062 13.648438 10.269531 13.617188 10.273438 13.582031 L 10.714844 9.5625 C 10.71875 9.539062 10.730469 9.519531 10.75 9.507812 C 10.765625 9.496094 10.789062 9.492188 10.8125 9.5 C 11.273438 9.671875 11.523438 9.738281 11.699219 9.738281 C 11.820312 9.738281 11.914062 9.707031 12.042969 9.664062 C 12.21875 9.605469 12.464844 9.527344 12.925781 9.476562 C 12.972656 9.46875 13.023438 9.46875 13.070312 9.46875 C 14.296875 9.46875 15.03125 11.160156 15.0625 11.234375 C 15.066406 11.242188 15.070312 11.25 15.070312 11.261719 L 15.070312 15.285156 C 15.070312 15.316406 15.042969 15.347656 15.011719 15.355469 C 15.007812 15.355469 15 15.355469 14.996094 15.355469 " fill-opacity="1" fill-rule="nonzero"/></g><g clip-path="url(#cd7cae9637)"><path fill="#ffffff" d="M 14.996094 11.246094 C 14.996094 11.246094 16.066406 9.878906 17.398438 10.6875 C 18.730469 11.5 19.828125 10.917969 19.828125 10.917969 L 20.269531 14.953125 C 20.269531 14.953125 18.730469 15.539062 17.398438 14.726562 C 16.066406 13.914062 14.996094 15.285156 14.996094 15.285156 L 14.996094 11.246094 " fill-opacity="1" fill-rule="nonzero"/><path fill="#ed8e1e" d="M 15.070312 11.273438 L 15.070312 15.09375 C 15.304688 14.855469 15.839844 14.398438 16.535156 14.398438 C 16.84375 14.398438 17.144531 14.488281 17.4375 14.664062 C 17.894531 14.941406 18.425781 15.085938 19.019531 15.085938 C 19.585938 15.085938 20.042969 14.953125 20.191406 14.902344 L 19.769531 11.023438 C 19.617188 11.085938 19.292969 11.191406 18.859375 11.191406 C 18.347656 11.191406 17.84375 11.042969 17.363281 10.75 C 17.09375 10.585938 16.816406 10.503906 16.535156 10.503906 C 15.753906 10.503906 15.167969 11.152344 15.070312 11.273438 Z M 14.996094 15.355469 C 14.988281 15.355469 14.980469 15.355469 14.972656 15.351562 C 14.945312 15.339844 14.925781 15.3125 14.925781 15.285156 L 14.925781 11.246094 C 14.925781 11.230469 14.929688 11.214844 14.941406 11.203125 C 14.96875 11.167969 15.609375 10.359375 16.535156 10.359375 C 16.84375 10.359375 17.144531 10.449219 17.4375 10.628906 C 17.894531 10.90625 18.371094 11.046875 18.859375 11.046875 C 19.421875 11.046875 19.792969 10.855469 19.796875 10.851562 C 19.816406 10.839844 19.839844 10.839844 19.863281 10.851562 C 19.882812 10.863281 19.898438 10.886719 19.898438 10.910156 L 20.339844 14.945312 C 20.34375 14.976562 20.324219 15.007812 20.296875 15.019531 C 20.273438 15.027344 19.738281 15.226562 19.019531 15.226562 C 18.398438 15.226562 17.84375 15.078125 17.363281 14.785156 C 17.09375 14.625 16.816406 14.539062 16.535156 14.539062 C 15.679688 14.539062 15.058594 15.320312 15.054688 15.328125 C 15.039062 15.34375 15.019531 15.355469 14.996094 15.355469 " fill-opacity="1" fill-rule="nonzero"/><path fill="#ffffff" d="M 14.996094 11.289062 C 14.996094 11.289062 15.632812 9.726562 17.324219 10.246094 C 19.011719 10.765625 18.875 10.6875 20.042969 10.230469 L 20.484375 14.226562 C 19.316406 14.683594 19.011719 14.761719 17.324219 14.242188 C 15.632812 13.722656 14.996094 15.285156 14.996094 15.285156 L 14.996094 11.289062 " fill-opacity="1" fill-rule="nonzero"/><path fill="#ed8e1e" d="M 15.070312 11.300781 L 15.070312 15.003906 C 15.292969 14.652344 15.792969 14.066406 16.664062 14.066406 C 16.878906 14.066406 17.109375 14.101562 17.34375 14.175781 C 18.1875 14.433594 18.644531 14.53125 19.035156 14.53125 C 19.472656 14.53125 19.832031 14.402344 20.40625 14.179688 L 19.980469 10.332031 C 19.898438 10.367188 19.820312 10.394531 19.75 10.425781 C 19.347656 10.585938 19.125 10.675781 18.828125 10.675781 C 18.507812 10.675781 18.136719 10.574219 17.300781 10.316406 C 17.078125 10.246094 16.863281 10.210938 16.664062 10.210938 C 15.59375 10.210938 15.125 11.179688 15.070312 11.300781 Z M 14.996094 15.355469 C 14.992188 15.355469 14.988281 15.355469 14.984375 15.355469 C 14.949219 15.347656 14.925781 15.316406 14.925781 15.285156 L 14.925781 11.289062 C 14.925781 11.277344 14.925781 11.269531 14.929688 11.261719 C 14.933594 11.25 15.433594 10.070312 16.664062 10.070312 C 16.878906 10.070312 17.109375 10.105469 17.34375 10.179688 C 18.148438 10.425781 18.53125 10.535156 18.828125 10.535156 C 19.09375 10.535156 19.308594 10.449219 19.699219 10.292969 C 19.792969 10.253906 19.898438 10.210938 20.015625 10.164062 C 20.039062 10.15625 20.0625 10.160156 20.078125 10.171875 C 20.097656 10.183594 20.113281 10.203125 20.113281 10.222656 L 20.554688 14.21875 C 20.558594 14.253906 20.539062 14.28125 20.507812 14.292969 C 19.90625 14.53125 19.511719 14.671875 19.035156 14.671875 C 18.628906 14.671875 18.160156 14.574219 17.300781 14.3125 C 17.078125 14.242188 16.863281 14.207031 16.664062 14.207031 C 15.527344 14.207031 15.066406 15.300781 15.0625 15.3125 C 15.050781 15.335938 15.027344 15.355469 14.996094 15.355469 " fill-opacity="1" fill-rule="nonzero"/></g><g clip-path="url(#8d7c7fe7cd)"><path fill="#ffffff" d="M 17.0625 9.546875 C 18.335938 9.6875 17.90625 10.050781 19.207031 9.570312 L 19.648438 13.589844 C 18.34375 14.074219 18.335938 13.710938 17.0625 13.570312 C 15.785156 13.425781 14.996094 15.285156 14.996094 15.285156 L 14.996094 11.261719 C 14.996094 11.261719 15.785156 9.40625 17.0625 9.546875 " fill-opacity="1" fill-rule="nonzero"/><path fill="#ed8e1e" d="M 15.070312 11.277344 L 15.070312 14.972656 C 15.339844 14.476562 15.988281 13.488281 16.921875 13.488281 C 16.972656 13.488281 17.019531 13.492188 17.070312 13.496094 C 17.472656 13.542969 17.753906 13.609375 17.980469 13.664062 C 18.207031 13.71875 18.386719 13.761719 18.597656 13.761719 C 18.855469 13.761719 19.148438 13.695312 19.570312 13.542969 L 19.144531 9.667969 C 18.714844 9.824219 18.480469 9.882812 18.292969 9.882812 C 18.152344 9.882812 18.042969 9.847656 17.90625 9.800781 C 17.734375 9.746094 17.5 9.667969 17.054688 9.617188 C 17.011719 9.613281 16.964844 9.609375 16.921875 9.609375 C 15.84375 9.609375 15.140625 11.121094 15.070312 11.277344 Z M 14.996094 15.355469 C 14.992188 15.355469 14.988281 15.355469 14.984375 15.355469 C 14.949219 15.347656 14.925781 15.316406 14.925781 15.285156 L 14.925781 11.261719 C 14.925781 11.25 14.925781 11.242188 14.929688 11.234375 C 14.960938 11.160156 15.695312 9.46875 16.921875 9.46875 C 16.972656 9.46875 17.019531 9.46875 17.070312 9.476562 C 17.53125 9.527344 17.773438 9.605469 17.953125 9.664062 C 18.082031 9.707031 18.175781 9.738281 18.292969 9.738281 C 18.472656 9.738281 18.71875 9.671875 19.183594 9.5 C 19.203125 9.492188 19.226562 9.496094 19.246094 9.507812 C 19.265625 9.519531 19.277344 9.539062 19.277344 9.5625 L 19.71875 13.582031 C 19.722656 13.617188 19.703125 13.648438 19.671875 13.660156 C 19.207031 13.832031 18.882812 13.90625 18.597656 13.90625 C 18.371094 13.90625 18.183594 13.859375 17.945312 13.804688 C 17.722656 13.75 17.445312 13.683594 17.054688 13.640625 C 17.011719 13.636719 16.964844 13.632812 16.921875 13.632812 C 15.792969 13.632812 15.070312 15.292969 15.0625 15.3125 C 15.050781 15.339844 15.023438 15.355469 14.996094 15.355469 " fill-opacity="1" fill-rule="nonzero"/></g></svg>